<?xml version="1.0" encoding="UTF-8" standalone="no"?>
<!DOCTYPE svg PUBLIC "-//W3C//DTD SVG 1.1//EN" "http://www.w3.org/Graphics/SVG/1.1/DTD/svg11.dtd">
<svg width="100%" height="100%" viewBox="0 0 1901 654" version="1.1" xmlns="http://www.w3.org/2000/svg" xmlns:xlink="http://www.w3.org/1999/xlink" xml:space="preserve" xmlns:serif="http://www.serif.com/" style="fill-rule:evenodd;clip-rule:evenodd;stroke-linecap:round;stroke-linejoin:round;stroke-miterlimit:1.5;">
    <g transform="matrix(1,0,0,1,-1115.385171,-231.398079)">
        <g transform="matrix(1.154892,0,0,1.154892,-743.603676,-890.241988)">
            <g transform="matrix(0.965473,0,0,0.904686,84.005209,119.523843)">
                <path d="M1608.501,1477.74C1603.816,1476.716 1598.966,1476.178 1594,1476.178L1594,1032.373L1594.518,1032.375C1599.302,1032.375 1603.977,1031.876 1608.501,1030.924C1636.673,1024.996 1658.966,1001.502 1664.929,971.594C1665.96,966.42 1666.503,961.053 1666.503,955.553L1666.502,955L3200.016,955L3200.015,955.553C3200.015,961.053 3200.557,966.42 3201.589,971.594C3207.442,1000.95 3229.027,1024.126 3256.464,1030.578C3261.468,1031.755 3266.667,1032.375 3272,1032.375L3272,1476.178C3266.667,1476.178 3261.468,1476.798 3256.464,1477.975C3229.195,1484.387 3207.707,1507.319 3201.698,1536.42C3200.596,1541.76 3200.015,1547.308 3200.015,1553L1665.985,1553C1665.985,1547.308 1665.404,1541.76 1664.302,1536.42C1658.217,1506.952 1636.259,1483.809 1608.501,1477.74Z" style="fill:rgb(255,0,0);fill-opacity:0;stroke:black;stroke-width:3.86px;"/>
            </g>
            <g transform="matrix(2.79609,0,0,0.944524,-2900.996691,69.573452)">
                <path d="M1622.969,1040.326C1632.696,1034.648 1640.394,1012.145 1642.453,983.499L2173.052,983.499C2175.073,1011.617 2182.526,1033.815 2192,1039.995L2192,1468.521C2182.584,1474.663 2175.165,1496.628 2173.09,1524.501L1642.236,1524.501C1640.135,1496.276 1632.553,1474.109 1622.969,1468.296L1622.969,1040.326Z" style="fill-opacity:0;stroke:black;stroke-width:0.86px;"/>
            </g>
            <g transform="matrix(0.71831,0,0,0.71831,431.285405,323.930671)">
                <path d="M1678.5,1615L1687.166,1637.204C1687.576,1638.254 1688.199,1639.208 1688.996,1640.004C1689.792,1640.801 1690.746,1641.424 1691.796,1641.834L1714,1650.5L1691.796,1659.166C1690.746,1659.576 1689.792,1660.199 1688.996,1660.996C1688.199,1661.792 1687.576,1662.746 1687.166,1663.796L1678.5,1686L1669.834,1663.796C1669.424,1662.746 1668.801,1661.792 1668.004,1660.996C1667.208,1660.199 1666.254,1659.576 1665.204,1659.166L1643,1650.5L1665.204,1641.834C1666.254,1641.424 1667.208,1640.801 1668.004,1640.004C1668.801,1639.208 1669.424,1638.254 1669.834,1637.204L1678.5,1615Z" style="fill-opacity:0;stroke:black;stroke-width:5.02px;"/>
            </g>
            <g transform="matrix(0.71831,0,0,0.71831,2022.348397,323.930671)">
                <path d="M1678.5,1615L1687.166,1637.204C1687.576,1638.254 1688.199,1639.208 1688.996,1640.004C1689.792,1640.801 1690.746,1641.424 1691.796,1641.834L1714,1650.5L1691.796,1659.166C1690.746,1659.576 1689.792,1660.199 1688.996,1660.996C1688.199,1661.792 1687.576,1662.746 1687.166,1663.796L1678.5,1686L1669.834,1663.796C1669.424,1662.746 1668.801,1661.792 1668.004,1660.996C1667.208,1660.199 1666.254,1659.576 1665.204,1659.166L1643,1650.5L1665.204,1641.834C1666.254,1641.424 1667.208,1640.801 1668.004,1640.004C1668.801,1639.208 1669.424,1638.254 1669.834,1637.204L1678.5,1615Z" style="fill-opacity:0;stroke:black;stroke-width:5.02px;"/>
            </g>
            <g transform="matrix(0.71831,0,0,0.71831,2022.348397,-187.058797)">
                <path d="M1678.5,1615L1687.166,1637.204C1687.576,1638.254 1688.199,1639.208 1688.996,1640.004C1689.792,1640.801 1690.746,1641.424 1691.796,1641.834L1714,1650.5L1691.796,1659.166C1690.746,1659.576 1689.792,1660.199 1688.996,1660.996C1688.199,1661.792 1687.576,1662.746 1687.166,1663.796L1678.5,1686L1669.834,1663.796C1669.424,1662.746 1668.801,1661.792 1668.004,1660.996C1667.208,1660.199 1666.254,1659.576 1665.204,1659.166L1643,1650.5L1665.204,1641.834C1666.254,1641.424 1667.208,1640.801 1668.004,1640.004C1668.801,1639.208 1669.424,1638.254 1669.834,1637.204L1678.5,1615Z" style="fill-opacity:0;stroke:black;stroke-width:5.02px;"/>
            </g>
            <g transform="matrix(0.71831,0,0,0.71831,431.285405,-187.058797)">
                <path d="M1678.5,1615L1687.166,1637.204C1687.576,1638.254 1688.199,1639.208 1688.996,1640.004C1689.792,1640.801 1690.746,1641.424 1691.796,1641.834L1714,1650.5L1691.796,1659.166C1690.746,1659.576 1689.792,1660.199 1688.996,1660.996C1688.199,1661.792 1687.576,1662.746 1687.166,1663.796L1678.5,1686L1669.834,1663.796C1669.424,1662.746 1668.801,1661.792 1668.004,1660.996C1667.208,1660.199 1666.254,1659.576 1665.204,1659.166L1643,1650.5L1665.204,1641.834C1666.254,1641.424 1667.208,1640.801 1668.004,1640.004C1668.801,1639.208 1669.424,1638.254 1669.834,1637.204L1678.5,1615Z" style="fill-opacity:0;stroke:black;stroke-width:5.02px;"/>
            </g>
        </g>
    </g>
</svg>
